<?xml version="1.0" standalone="no"?>
<!DOCTYPE svg PUBLIC "-//W3C//DTD SVG 20010904//EN"
 "http://www.w3.org/TR/2001/REC-SVG-20010904/DTD/svg10.dtd">
<svg version="1.0" xmlns="http://www.w3.org/2000/svg"
 width="2800.000000pt" height="2800.000000pt" viewBox="0 0 2800.000000 2800.000000"
 preserveAspectRatio="xMidYMid meet">
<metadata>
Created by potrace 1.14, written by Peter Selinger 2001-2017
</metadata>
<g transform="translate(0.000000,2800.000000) scale(0.100000,-0.100000)"
fill="#000000" stroke="none">
<path d="M2721 15749 c-33 -20 -42 -32 -76 -94 -35 -64 -34 -63 -75 -66 -19
-2 -45 -10 -58 -17 -20 -13 -31 -10 -130 38 -182 88 -250 105 -422 104 -113
-1 -252 -31 -288 -62 -26 -23 -35 -57 -28 -97 7 -37 24 -48 236 -156 58 -30
108 -58 112 -64 4 -5 8 -6 8 -2 0 5 14 -1 30 -13 17 -12 30 -18 30 -14 0 3 6
2 13 -4 6 -5 62 -35 122 -66 103 -52 111 -58 128 -99 l17 -43 -51 -95 c-28
-52 -67 -123 -86 -159 -18 -36 -38 -72 -43 -80 -6 -8 -53 -96 -106 -195 -53
-99 -113 -211 -134 -250 -75 -140 -84 -160 -86 -182 -4 -32 31 -58 73 -54 11
1 60 67 60 81 0 3 14 28 30 55 17 28 54 96 83 150 29 55 61 114 71 131 10 18
41 76 70 130 29 55 63 117 75 139 12 22 46 85 74 140 62 118 73 133 93 117 8
-7 16 -10 19 -7 3 3 11 -1 18 -10 7 -8 20 -15 29 -15 9 0 23 -6 32 -13 15 -11
9 -27 -52 -155 -38 -79 -69 -148 -69 -153 0 -5 -4 -9 -10 -9 -5 0 -10 -4 -10
-9 0 -5 -68 -148 -152 -318 -83 -169 -152 -310 -153 -313 -2 -11 -269 -546
-277 -557 -7 -9 -32 -1 -99 34 -49 25 -89 50 -89 57 0 6 6 22 14 36 7 14 37
70 66 125 29 55 63 119 76 143 38 68 31 107 -22 118 -33 6 -52 -9 -83 -67
-167 -317 -173 -331 -168 -370 8 -60 27 -81 118 -129 152 -80 147 -78 197 -68
25 4 54 16 65 26 18 16 74 120 142 262 17 36 42 85 55 110 13 25 24 47 25 50
1 13 61 126 70 132 5 4 7 8 3 8 -4 0 1 17 12 38 10 20 24 48 29 62 6 14 15 32
21 40 16 24 383 774 386 788 6 32 34 58 74 68 42 12 43 11 239 -88 437 -223
449 -229 482 -223 63 11 92 78 65 150 -52 136 -98 212 -183 305 -59 65 -141
124 -260 185 -86 45 -92 50 -102 89 -5 23 -16 50 -24 60 -13 17 -11 27 19 87
58 118 37 179 -83 239 -76 39 -121 44 -162 19z m105 -119 c25 -12 47 -27 50
-34 3 -8 -6 -37 -20 -64 l-26 -51 -47 26 c-27 13 -52 28 -57 33 -7 7 42 110
52 110 2 0 23 -9 48 -20z m-766 -35 c36 -4 91 -16 124 -26 72 -25 239 -107
234 -117 -54 -120 -74 -151 -93 -146 -15 5 -354 176 -510 257 -18 10 -18 10 5
19 14 5 54 12 90 15 36 3 67 7 69 9 2 2 7 2 10 0 3 -2 35 -7 71 -11z m645
-180 c60 -31 121 -64 135 -75 l25 -19 -70 -137 c-38 -75 -75 -138 -82 -141
-11 -4 -202 82 -213 97 -3 3 -20 12 -37 19 -22 9 -33 20 -33 33 0 11 25 69 55
129 70 138 76 149 95 149 8 0 64 -25 125 -55z m312 -261 c37 -20 91 -52 120
-71 59 -39 173 -151 173 -169 0 -7 6 -17 13 -21 7 -4 24 -30 37 -58 13 -27 27
-58 32 -68 8 -15 3 -14 -39 5 -26 13 -50 25 -53 28 -5 5 -198 104 -374 192
-75 38 -75 38 -63 65 30 66 68 133 76 133 5 0 40 -16 78 -36z"/>
<path d="M3943 14820 c-21 -12 -36 -35 -51 -76 -24 -67 -83 -251 -87 -274 -2
-8 -4 -15 -5 -15 -6 0 -8 -46 -4 -72 4 -23 15 -36 40 -48 47 -22 67 -17 164
40 47 28 92 55 102 60 156 91 182 116 172 172 -11 63 -97 159 -174 195 -81 37
-119 42 -157 18z m110 -126 c18 -9 47 -32 65 -51 29 -30 31 -36 18 -48 -8 -8
-17 -15 -21 -15 -3 0 -11 -5 -18 -10 -18 -16 -162 -98 -165 -95 -7 6 70 235
79 235 6 0 24 -7 42 -16z"/>
<path d="M3631 14701 c-21 -21 -27 -43 -40 -155 -8 -67 -7 -71 17 -93 30 -27
50 -26 75 5 19 22 20 29 32 136 3 33 8 62 10 66 6 10 -29 48 -52 54 -15 5 -28
1 -42 -13z"/>
<path d="M6565 14540 c-22 -5 -56 -11 -75 -15 -47 -9 -159 -54 -192 -76 -14
-11 -31 -19 -37 -19 -6 0 -11 -5 -11 -10 0 -6 -8 -13 -17 -17 -18 -6 -133
-117 -133 -128 0 -3 -9 -15 -19 -27 -30 -32 -88 -156 -107 -228 -9 -36 -19
-72 -22 -80 -16 -45 -21 -291 -9 -390 9 -72 14 -93 28 -138 16 -50 21 -67 18
-67 -7 0 80 -150 112 -192 114 -151 316 -254 526 -268 40 -3 76 -5 80 -6 5 -1
10 -1 13 0 3 1 39 3 80 6 79 5 85 6 165 28 134 38 262 106 267 141 2 12 2 62
0 113 l-3 91 -66 -49 c-68 -52 -152 -99 -177 -99 -8 0 -16 -4 -18 -8 -8 -20
-156 -41 -268 -37 -101 2 -137 8 -200 33 -8 3 -17 6 -20 7 -81 25 -190 129
-237 225 -57 117 -74 197 -77 365 -7 369 134 596 411 660 91 21 269 16 351
-10 7 -3 14 -5 17 -5 35 -3 205 -100 253 -146 l27 -24 5 92 c7 138 9 135 -101
191 -134 68 -224 89 -389 92 -74 1 -153 -1 -175 -5z"/>
<path d="M8070 14539 c-152 -37 -223 -70 -316 -147 -108 -89 -213 -253 -239
-372 -1 -8 -8 -33 -13 -55 -29 -108 -33 -346 -8 -465 3 -14 8 -38 12 -55 10
-54 57 -168 93 -230 52 -88 182 -213 264 -253 141 -69 285 -94 450 -78 328 32
564 258 632 606 16 79 18 106 18 220 0 236 -39 382 -144 538 -93 138 -215 226
-377 274 -89 26 -295 35 -372 17z m230 -173 c62 -8 84 -15 146 -46 55 -27 164
-121 164 -141 0 -4 6 -14 13 -21 37 -39 91 -192 104 -297 13 -98 7 -268 -12
-361 -3 -14 -7 -34 -9 -45 -2 -11 -16 -49 -31 -85 -84 -198 -245 -312 -445
-313 -45 0 -151 14 -168 22 -9 4 -39 19 -67 32 -74 35 -172 139 -211 224 -33
71 -57 154 -69 235 -7 42 -7 225 -1 280 10 94 48 212 91 286 28 48 122 154
136 154 6 0 22 9 37 20 35 26 133 55 197 59 28 2 51 4 53 6 2 1 11 1 20 -1 9
-2 33 -5 52 -8z"/>
<path d="M15330 14534 c-171 -36 -281 -102 -395 -235 -83 -97 -155 -268 -173
-411 -9 -79 -5 -325 7 -389 58 -306 248 -523 519 -594 47 -12 106 -20 197 -27
18 -1 160 12 183 17 12 3 32 7 45 10 37 8 130 47 159 67 14 10 29 18 32 18 14
0 136 115 179 169 23 28 92 158 99 186 8 32 8 33 23 74 59 167 42 542 -31 683
-8 15 -12 28 -9 28 2 0 -17 35 -42 78 -49 80 -167 206 -219 232 -16 8 -31 18
-34 21 -10 13 -145 62 -205 75 -61 13 -269 12 -335 -2z m230 -165 c104 -7 231
-74 301 -160 108 -132 149 -277 144 -509 -4 -171 -3 -162 -20 -222 -8 -27 -12
-48 -9 -48 2 0 -2 -10 -10 -22 -8 -13 -15 -27 -15 -31 2 -26 -65 -131 -116
-183 -53 -52 -143 -110 -187 -118 -108 -21 -128 -22 -223 -12 -48 5 -92 18
-140 41 -69 34 -155 102 -155 124 0 6 -4 11 -9 11 -8 0 -64 86 -60 92 1 2 -8
22 -19 44 -12 23 -24 57 -27 75 -3 18 -8 36 -11 40 -16 26 -24 296 -12 379 11
66 18 102 24 112 3 5 8 21 10 36 3 15 12 37 20 50 8 12 12 22 9 22 -12 0 76
119 117 160 61 59 170 110 255 117 37 3 70 7 72 9 2 2 7 2 10 0 3 -2 26 -5 51
-7z"/>
<path d="M9323 14520 c-17 -5 -18 -42 -17 -795 1 -434 2 -796 3 -803 1 -9 28
-12 109 -11 l107 1 0 805 0 805 -92 2 c-51 0 -100 -1 -110 -4z"/>
<path d="M9959 14505 c-1 -27 -1 -1544 0 -1572 1 -22 4 -23 106 -23 l105 0 0
666 c0 366 3 663 8 660 4 -2 34 -58 67 -123 33 -65 62 -120 65 -123 3 -3 14
-23 25 -45 11 -22 38 -74 61 -115 37 -68 74 -139 212 -400 24 -47 49 -91 54
-97 6 -7 7 -13 3 -13 -5 0 -2 -8 6 -17 8 -10 24 -36 36 -58 11 -22 39 -74 61
-115 21 -41 56 -107 77 -147 l37 -72 147 2 146 2 1 798 c0 469 -4 801 -9 804
-14 8 -186 7 -195 -1 -4 -4 -7 -301 -8 -659 -1 -359 -2 -656 -3 -662 -1 -9
-68 112 -129 235 -15 30 -29 57 -32 60 -3 3 -20 32 -37 65 -53 102 -143 273
-243 460 -39 73 -80 150 -195 368 -37 71 -74 131 -81 134 -8 3 -75 6 -149 7
-129 1 -135 0 -136 -19z"/>
<path d="M11648 14522 l-38 -3 0 -805 0 -805 323 5 c177 2 333 7 347 9 14 3
45 8 70 12 25 4 50 8 55 9 6 1 16 5 23 9 6 5 12 6 12 3 0 -14 205 72 236 99 7
5 32 26 57 45 24 19 62 58 82 85 35 46 93 157 99 187 2 7 8 33 16 58 7 25 14
56 16 70 13 105 16 147 16 230 0 52 -1 97 -2 100 -1 3 -3 19 -5 35 -2 17 -7
49 -10 72 -9 67 -51 185 -89 249 -33 57 -94 127 -146 169 -66 53 -242 125
-340 140 -19 3 -47 7 -60 10 -68 13 -557 26 -662 17z m542 -187 c132 -12 189
-25 261 -60 131 -63 220 -174 255 -317 19 -81 25 -131 26 -231 1 -220 -47
-373 -151 -478 -116 -116 -249 -153 -556 -158 l-195 -2 0 165 c-1 91 -1 330
-1 531 0 201 0 407 1 459 l0 95 38 3 c52 4 245 0 322 -7z"/>
<path d="M13350 14522 l-45 -3 2 -762 c1 -419 2 -781 3 -804 l0 -43 108 1 109
2 0 333 c0 184 3 337 6 341 4 3 73 6 153 5 169 -2 232 -15 291 -64 62 -51 89
-95 224 -363 l127 -250 103 -2 c57 -2 110 -1 117 2 8 3 -25 79 -105 237 -64
128 -133 260 -152 293 -46 81 -116 162 -167 194 l-41 27 57 27 c70 33 132 92
164 160 31 63 36 89 42 193 5 96 -20 210 -61 275 -72 113 -207 182 -384 195
-77 6 -485 10 -551 6z m500 -185 c102 -8 167 -38 214 -99 37 -50 48 -85 51
-168 6 -151 -62 -249 -199 -288 -12 -3 -104 -6 -205 -6 l-185 -1 1 270 c1 149
2 275 2 282 1 6 9 13 18 15 21 4 230 1 303 -5z"/>
<path d="M16610 14520 c-24 -4 -34 -10 -31 -20 2 -8 4 -368 5 -800 l1 -785
107 -2 106 -1 4 50 c1 27 0 56 -5 63 -4 8 -3 16 2 20 7 4 7 15 1 30 -5 14 -6
25 -2 25 4 0 6 33 4 73 -1 39 -3 77 -3 82 0 6 1 29 3 53 2 23 0 42 -4 42 -4 0
-3 11 2 25 5 13 5 27 1 30 -5 3 -5 21 -1 40 4 20 4 38 -1 41 -5 3 -6 12 0 21
4 9 6 23 4 33 -4 15 10 17 149 17 188 1 254 6 340 27 90 22 141 51 209 117 65
65 100 140 115 249 5 43 5 160 -1 192 -21 111 -53 175 -120 244 -19 20 -85 68
-95 70 -3 0 -18 7 -35 14 -16 7 -32 14 -35 15 -64 16 -114 26 -150 30 -63 8
-527 11 -570 5z m525 -184 c102 -11 182 -63 227 -148 19 -37 23 -58 23 -148 0
-90 -4 -111 -23 -149 -41 -76 -94 -117 -181 -141 -43 -11 -370 -20 -372 -10 0
3 -3 14 -5 25 -2 11 -4 35 -4 53 0 17 0 39 0 47 0 8 0 29 0 45 0 17 0 37 0 45
0 8 1 30 0 48 0 17 1 62 3 100 1 37 -1 67 -5 67 -4 0 -3 11 2 25 5 14 5 27 0
30 -5 3 -5 18 0 35 5 17 5 30 1 30 -5 0 -6 11 -4 24 4 19 12 26 37 28 46 4
241 1 301 -6z"/>
<path d="M4305 14404 c-16 -9 -35 -22 -41 -28 -18 -17 -55 -48 -104 -86 -25
-19 -47 -37 -50 -40 -3 -3 -39 -32 -80 -64 -41 -33 -79 -65 -85 -71 -5 -7 -19
-17 -31 -23 -17 -9 -25 -7 -45 11 -62 57 -255 162 -334 183 -5 1 -37 10 -70
18 -94 26 -131 30 -276 31 -121 0 -139 -2 -158 -19 -25 -23 -27 -58 -5 -80 12
-13 37 -16 122 -15 97 1 171 -4 227 -15 41 -8 148 -37 163 -45 125 -57 262
-140 262 -157 0 -6 -18 -24 -40 -39 -22 -15 -40 -31 -40 -35 0 -23 -54 -16
-80 10 -3 3 -29 18 -57 33 -190 101 -408 123 -638 63 -16 -5 -47 -17 -92 -37
-24 -10 -47 -19 -53 -19 -5 0 -10 -4 -10 -10 0 -5 -5 -10 -11 -10 -35 0 -187
-138 -257 -232 -150 -203 -195 -490 -115 -733 65 -199 209 -373 391 -471 32
-17 51 -33 48 -41 -12 -30 -72 -102 -86 -103 -34 0 -190 109 -265 186 -62 63
-145 172 -145 189 0 3 -11 23 -25 45 -14 22 -22 40 -19 40 4 0 2 6 -3 13 -12
14 -50 115 -58 154 -35 162 -38 290 -9 447 19 108 107 293 184 390 47 59 130
141 174 173 28 21 53 40 56 44 8 11 179 97 183 93 2 -2 16 7 31 21 35 33 33
74 -6 93 -25 11 -35 9 -103 -19 -64 -26 -108 -52 -243 -144 -68 -46 -242 -250
-273 -320 -5 -11 -13 -27 -19 -35 -5 -8 -16 -33 -25 -55 -9 -22 -21 -48 -27
-59 -5 -10 -16 -44 -25 -75 -33 -127 -42 -207 -39 -346 6 -212 51 -364 164
-548 63 -102 205 -253 297 -313 33 -21 62 -41 65 -44 3 -3 18 -11 34 -18 22
-10 26 -15 17 -26 -10 -12 -104 -14 -552 -15 -297 0 -549 -3 -559 -6 -37 -12
-38 -86 -2 -100 21 -8 3770 -8 3783 1 20 12 29 53 17 79 -9 19 -19 25 -44 25
-28 0 -37 6 -51 33 -9 17 -18 34 -18 37 -1 3 -23 50 -50 105 -47 97 -48 103
-50 200 -6 231 -7 247 -27 267 -24 24 -53 23 -76 -2 -17 -19 -19 -34 -16 -168
6 -229 6 -228 62 -345 29 -59 52 -111 52 -116 0 -4 -524 -8 -1165 -8 l-1164 0
32 41 c40 51 41 53 124 156 84 106 74 93 133 170 28 36 58 75 68 86 22 26 42
83 147 409 90 280 91 284 101 310 4 11 8 25 9 30 2 6 10 33 20 62 21 64 36 80
155 173 25 19 50 40 55 46 6 6 55 47 110 90 55 43 115 94 134 112 19 17 39 32
43 32 4 0 15 8 25 18 10 10 40 36 68 58 27 21 58 46 68 54 11 8 24 20 31 25 6
6 60 50 119 98 l108 87 47 -24 c26 -14 69 -40 97 -58 l50 -33 2 -234 c3 -204
5 -238 21 -265 16 -28 69 -76 187 -171 20 -16 42 -35 49 -40 6 -6 36 -30 66
-55 125 -102 127 -108 134 -270 4 -83 7 -97 27 -113 14 -11 30 -15 43 -11 47
14 48 21 43 154 -4 109 -8 133 -30 176 -22 44 -72 98 -148 159 -80 65 -135
110 -139 115 -3 4 -14 13 -26 21 -11 8 -40 31 -64 52 l-44 37 -2 227 c-2 124
-5 237 -9 251 -9 35 -55 75 -154 134 -98 59 -163 71 -216 42z m-1015 -455 c3
-1 9 -1 14 0 32 6 291 -102 284 -119 -3 -6 -42 -40 -171 -146 -16 -13 -22 -12
-57 8 -29 17 -40 30 -41 48 -2 60 -17 82 -62 85 -23 2 -57 -40 -57 -70 0 -20
-5 -22 -55 -24 -54 -1 -55 0 -55 27 -1 81 -103 93 -116 12 -6 -35 -7 -36 -52
-39 -61 -3 -91 -22 -87 -57 4 -40 23 -54 85 -63 4 -1 5 -690 1 -723 -1 -5 -13
-8 -27 -8 -51 0 -79 -63 -43 -96 15 -13 40 -17 116 -18 54 -1 98 -5 98 -8 0
-8 -51 -75 -110 -146 l-21 -24 -39 18 c-68 31 -150 90 -214 154 -33 34 -61 65
-61 70 0 5 -7 15 -15 24 -18 18 -92 173 -99 207 -3 13 -8 35 -11 49 -15 62
-11 218 7 296 43 183 165 351 326 447 44 27 86 50 93 51 8 2 21 6 29 9 29 12
126 36 155 39 29 3 175 1 185 -3z m8 -354 c17 -11 34 -25 37 -33 9 -25 -54
-210 -73 -216 -9 -2 -44 -5 -76 -5 -32 -1 -62 -4 -67 -6 -4 -3 -10 -1 -14 4
-3 7 -15 7 -30 1 -15 -6 -27 -6 -30 0 -5 8 -9 210 -6 266 1 6 41 10 114 9 91
-2 120 -6 145 -20z m-64 -376 c6 -7 -106 -334 -117 -341 -6 -4 -16 -4 -22 0
-5 4 -17 5 -27 4 -9 -2 -19 2 -23 9 -11 17 -8 321 3 328 11 6 181 6 186 0z"/>
<path d="M4001 13671 c-56 -54 -55 -98 2 -120 24 -9 31 -6 72 33 25 24 46 50
46 58 2 24 -2 41 -16 54 -25 25 -61 16 -104 -25z"/>
<path d="M3683 13346 c-56 -57 -109 -117 -116 -134 -8 -20 -12 -87 -11 -216 1
-156 4 -190 17 -203 21 -21 65 -20 82 3 15 19 16 37 16 255 l0 116 100 102
c104 106 117 132 81 164 -37 34 -60 21 -169 -87z"/>
<path d="M4592 13254 c-36 -25 -28 -62 23 -116 l46 -46 0 -189 c1 -206 6 -223
59 -223 50 0 54 15 55 228 0 109 -1 207 -3 218 -6 33 -99 126 -137 138 -12 3
-30 -1 -43 -10z"/>
</g>
</svg>
